<?xml version="1.0"?>
<svg xmlns="http://www.w3.org/2000/svg" xmlns:xlink="http://www.w3.org/1999/xlink" xmlns:svgjs="http://svgjs.com/svgjs" version="1.1" width="512" height="512" x="0" y="0" viewBox="0 0 64 64" style="enable-background:new 0 0 512 512" xml:space="preserve" class=""><g><g xmlns="http://www.w3.org/2000/svg"><path d="m42 20.792c0-1.413-.702-2.724-1.877-3.508-.364-.243-.76-.426-1.18-.546l-5.181-1.48c-.918 1.058-2.255 1.742-3.762 1.742h-4.697c-.654 0-1.288.192-1.832.555-.921.613-1.471 1.641-1.471 2.748v3.294c0 2.88.983 5.61 2.788 7.807 1.726-2.096 4.332-3.404 7.212-3.404s5.486 1.308 7.212 3.403c1.805-2.196 2.788-4.926 2.788-7.806zm-16.445 4.04-1.109-1.664 1.751-1.168-1.752-1.168 1.109-1.664 4.249 2.832zm7.445 1.168h-2v-4h2zm6.555-2.832-1.109 1.664-4.249-2.832 4.248-2.832 1.109 1.664-1.751 1.168z" fill="#03699f" data-original="#000000" style="" class=""/><path d="m21.07 45.516 1.636-9.272-5.618.992c-5.266.929-9.088 5.484-9.088 10.832v2.932h6v-4h2v3.586z" fill="#03699f" data-original="#000000" style="" class=""/><path d="m12.121 17h.879c1.065 0 2.107-.256 3.057-.72-.02-.308-.057-.615-.057-.924 0-.487.026-.967.073-1.442-.851.67-1.909 1.086-3.073 1.086h-.879c-1.169 0-2.121-.952-2.121-2.121 0-.566.22-1.099.62-1.499.89-.89 1.38-2.072 1.38-3.33 0-1.682 1.346-3.05 3-3.05s3 1.346 3 3v.083c.45-.761.965-1.477 1.543-2.14-.804-1.776-2.56-2.943-4.543-2.943-2.757 0-5 2.266-5 5.05 0 .723-.281 1.402-.792 1.914-.779.779-1.208 1.814-1.208 2.915 0 2.272 1.849 4.121 4.121 4.121z" fill="#03699f" data-original="#000000" style="" class=""/><path d="m18 23c0 1.103.897 2 2 2h.068c-.045-.464-.068-.932-.068-1.403v-2.597c-1.103 0-2 .897-2 2z" fill="#03699f" data-original="#000000" style="" class=""/><path d="m44 21v2.597c0 .472-.023.94-.068 1.403h.068c1.103 0 2-.897 2-2s-.897-2-2-2z" fill="#03699f" data-original="#000000" style="" class=""/><path d="m48 15.95c0-1.792.698-3.476 1.965-4.743.035-.151-.021-.207-.086-.207h-.879c-.555 0-1.091.155-1.557.44.355 1.247.557 2.557.557 3.916 0 .278-.035.553-.051.83.019-.079.051-.151.051-.236z" fill="#03699f" data-original="#000000" style="" class=""/><path d="m49 9h.879c1.169 0 2.121.952 2.121 2.121 0 .566-.22 1.099-.62 1.499-.89.89-1.38 2.072-1.38 3.33 0 1.492-1.061 2.732-2.455 2.994l-.403 1.611c.101.129.194.262.278.403 2.558-.22 4.58-2.368 4.58-5.007 0-.723.281-1.402.792-1.914.779-.78 1.208-1.815 1.208-2.916 0-2.272-1.849-4.121-4.121-4.121h-.879c-1.121 0-2.204.271-3.186.777.355.568.676 1.159.95 1.776.69-.349 1.448-.553 2.236-.553z" fill="#03699f" data-original="#000000" style="" class=""/><path d="m36.147 43.267.557 5.008c.947-.797 2.155-1.275 3.457-1.275.463 0 .839-.376.839-.839 0-.049-.004-.098-.013-.146l-1.756-9.947c-.62-3.516-3.661-6.068-7.231-6.068s-6.611 2.552-7.231 6.067l-1.232 6.982 1.463-1.463v-.172c0-1.179.459-2.288 1.293-3.121.833-.834 1.942-1.293 3.121-1.293h.172l.671-.671c.857-.857 1.996-1.329 3.207-1.329 2.501 0 4.536 2.035 4.536 4.536 0 1.211-.472 2.351-1.329 3.207z" fill="#03699f" data-original="#000000" style="" class=""/><path d="m18.369 18.353.229.915c.438-.166.907-.268 1.402-.268h.162c.318-1.259 1.091-2.37 2.2-3.109.874-.583 1.891-.891 2.941-.891h4.697c1.654 0 3-1.346 3-3v-5h2v5c0 .512-.1.996-.243 1.462l4.736 1.353c.618.176 1.204.447 1.74.805 1.22.813 2.084 2.015 2.494 3.38h.273c.495 0 .964.102 1.402.267l.229-.915c.245-.978.369-1.986.369-2.996 0-6.813-5.543-12.356-12.356-12.356h-3.288c-6.813 0-12.356 5.543-12.356 12.356 0 1.01.124 2.018.369 2.997z" fill="#03699f" data-original="#000000" style="" class=""/><path d="m14 8.05c0 1.792-.698 3.476-1.965 4.743-.035.151.021.207.086.207h.879c1.654 0 3-1.346 3-3v-2c0-.551-.449-1-1-1-.561 0-1 .461-1 1.05z" fill="#03699f" data-original="#000000" style="" class=""/><path d="m29.65 51.672c.555.832 1.481 1.328 2.48 1.328 1.286 0 2.422-.819 2.828-2.038l.024-.072-.646-5.813-5.636 5.636c.367.262.696.578.95.959z" fill="#03699f" data-original="#000000" style="" class=""/><path d="m54 37h-.879c-.065 0-.121.056-.121.121.549.595.961 1.197 1.283 1.844 1.033 1.053 1.884 2.278 2.509 3.626.126-.168.208-.37.208-.591v-2c0-1.654-1.346-3-3-3z" fill="#03699f" data-original="#000000" style="" class=""/><path d="m54 33h-.879c-1.783 0-3.331 1.152-3.893 2.783.643.22 1.259.49 1.849.802.24-.909 1.061-1.585 2.044-1.585h.879c2.757 0 5 2.243 5 5v2c0 1.081-.591 2.046-1.477 2.575.183.659.308 1.34.386 2.034 1.838-.758 3.091-2.543 3.091-4.609v-2c0-3.86-3.14-7-7-7z" fill="#03699f" data-original="#000000" style="" class=""/><path d="m50 53h6v8h-6z" fill="#03699f" data-original="#000000" style="" class=""/><path d="m46.912 37.235-5.618-.991 1.663 9.424c.029.163.043.328.043.493 0 1.566-1.273 2.839-2.839 2.839-1.46 0-2.75.93-3.212 2.315l-.094.28c-.678 2.036-2.577 3.405-4.725 3.405-1.669 0-3.219-.829-4.144-2.218-.183-.274-.442-.482-.737-.617l-8.678 8.678c-.055.055-.116.103-.173.157h29.602v-14h2v4h6v-2.932c0-5.348-3.822-9.903-9.088-10.833z" fill="#03699f" data-original="#000000" style="" class=""/><path d="m36 39.536c0-1.398-1.138-2.536-2.536-2.536-.677 0-1.314.264-1.793.743l-1.257 1.257h-1c-.635 0-1.258.258-1.707.707s-.707 1.072-.707 1.707v1l-14.293 14.293-1.414-1.414 2.293-2.293h-5.586v2.636c0 2.958 2.406 5.364 5.364 5.364 1.433 0 2.78-.558 3.793-1.571l18.101-18.101c.478-.478.742-1.115.742-1.792z" fill="#03699f" data-original="#000000" style="" class=""/><path d="m5 40.879c0-.566.22-1.099.62-1.499.89-.89 1.38-2.072 1.38-3.33 0-1.682 1.346-3.05 3-3.05s3 1.346 3 3v.544c.627-.326 1.285-.602 1.972-.825-.149-2.624-2.311-4.719-4.972-4.719-2.757 0-5 2.266-5 5.05 0 .723-.281 1.402-.792 1.914-.779.779-1.208 1.814-1.208 2.915 0 2.023 1.467 3.701 3.392 4.047.165-.666.384-1.311.648-1.935-1.131-.043-2.04-.971-2.04-2.112z" fill="#03699f" data-original="#000000" style="" class=""/><path d="m8.102 40.991c.783-1.206 1.761-2.274 2.898-3.162v-1.829c0-.551-.449-1-1-1-.561 0-1 .461-1 1.05 0 1.792-.698 3.476-1.965 4.743-.035.151.021.207.086.207h.879c.035 0 .068-.007.102-.009z" fill="#03699f" data-original="#000000" style="" class=""/><path d="m59 19c-2.206 0-4 1.794-4 4h2c0-1.103.897-2 2-2s2 .897 2 2-.897 2-2 2v2c2.206 0 4-1.794 4-4s-1.794-4-4-4z" fill="#03699f" data-original="#000000" style="" class=""/><circle cx="4" cy="22" r="3" fill="#03699f" data-original="#000000" style="" class=""/></g></g></svg>
