<?xml version="1.0"?>
<svg xmlns="http://www.w3.org/2000/svg" xmlns:xlink="http://www.w3.org/1999/xlink" xmlns:svgjs="http://svgjs.com/svgjs" version="1.1" width="512" height="512" x="0" y="0" viewBox="0 0 464 464" style="enable-background:new 0 0 512 512" xml:space="preserve" class=""><g><path xmlns="http://www.w3.org/2000/svg" d="m64 104h-32v160.222656c9.648438-7.269531 20.40625-13.109375 32-17.222656zm0 0" fill="#03699f" data-original="#000000" style=""/><path xmlns="http://www.w3.org/2000/svg" d="m175.695312 264h16.304688v-48h-80v24.40625c23.800781 1.578125 45.679688 10.097656 63.695312 23.59375zm0 0" fill="#03699f" data-original="#000000" style=""/><path xmlns="http://www.w3.org/2000/svg" d="m104 256c-57.34375 0-104 46.65625-104 104s46.65625 104 104 104 104-46.65625 104-104-46.65625-104-104-104zm0 192c-48.519531 0-88-39.480469-88-88 0-20.246094 7.0625-40.023438 19.878906-55.6875l12.378906 10.144531c-8.785156 10.726563-14.210937 23.832031-15.753906 37.542969h15.496094v16h-15.527344c3.703125 33.320312 30.207032 59.824219 63.527344 63.527344v-15.527344h16v15.496094c13.710938-1.542969 26.816406-6.96875 37.542969-15.753906l10.144531 12.378906c-15.664062 12.816406-35.441406 19.878906-55.6875 19.878906zm24-96v16h-32v-48h16v32zm44.121094 63.6875-12.378906-10.144531c8.785156-10.726563 14.210937-23.839844 15.753906-37.542969h-15.496094v-16h15.527344c-3.703125-33.320312-30.207032-59.824219-63.527344-63.527344v15.527344h-16v-15.496094c-13.710938 1.542969-26.816406 6.96875-37.542969 15.753906l-10.144531-12.378906c15.664062-12.816406 35.441406-19.878906 55.6875-19.878906 48.519531 0 88 39.480469 88 88 0 20.246094-7.0625 40.023438-19.878906 55.6875zm0 0" fill="#03699f" data-original="#000000" style=""/><path xmlns="http://www.w3.org/2000/svg" d="m96 200h112v80h-14.808594c19.089844 21.257812 30.808594 49.246094 30.808594 80 0 2.703125-.230469 5.34375-.40625 8h16.40625v-248c0-30.871094-25.128906-56-56-56h-104v178.414062c5.207031-1.0625 10.574219-1.652343 16-2.015624zm32-96h80v16h-80zm0 32h80v16h-80zm-32-32h16v16h-16zm0 32h16v16h-16zm0 32h112v16h-112zm0 0" fill="#03699f" data-original="#000000" style=""/><path xmlns="http://www.w3.org/2000/svg" d="m384 0-24 25.617188-24-25.617188v48h48zm0 0" fill="#03699f" data-original="#000000" style=""/><path xmlns="http://www.w3.org/2000/svg" d="m210.054688 416h85.945312v-32h-74.414062c-2.3125 11.335938-6.265626 22.0625-11.53125 32zm0 0" fill="#03699f" data-original="#000000" style=""/><path xmlns="http://www.w3.org/2000/svg" d="m312 440c0 13.230469 10.769531 24 24 24s24-10.769531 24-24v-32h-48zm0 0" fill="#03699f" data-original="#000000" style=""/><path xmlns="http://www.w3.org/2000/svg" d="m318.945312 176h34.109376l-17.054688-25.574219zm0 0" fill="#03699f" data-original="#000000" style=""/><path xmlns="http://www.w3.org/2000/svg" d="m344 280h-16v-88h-16v200h16v-96h16v96h16v-200h-16zm0 0" fill="#03699f" data-original="#000000" style=""/><path xmlns="http://www.w3.org/2000/svg" d="m432 104v280h-56v32h88v-312zm0 0" fill="#03699f" data-original="#000000" style=""/><path xmlns="http://www.w3.org/2000/svg" d="m288 152v-16h38.382812l9.617188-14.425781 9.617188 14.425781h54.382812v16h-43.71875l19.71875 29.574219v186.425781h40v-304h-104c-30.871094 0-56 25.128906-56 56v248h40v-186.425781l19.71875-29.574219zm0-48h112v16h-112zm0 0" fill="#03699f" data-original="#000000" style=""/></g></svg>
