<svg xmlns="http://www.w3.org/2000/svg" width="11.6" height="14.5" viewBox="0 0 11.6 14.5"><defs><style>.a{fill:#71839b;}</style></defs><g transform="translate(-5.4 -3)"><g transform="translate(5.4 3)"><g transform="translate(0 6.344)"><path class="a" d="M14.4,21.656H8a2.566,2.566,0,0,1-2.6-2.538V16.037A2.566,2.566,0,0,1,8,13.5h6.4A2.566,2.566,0,0,1,17,16.037v3.081A2.566,2.566,0,0,1,14.4,21.656ZM8,14.648a1.355,1.355,0,0,0-1.39,1.329v3.081A1.355,1.355,0,0,0,8,20.388h6.4a1.355,1.355,0,0,0,1.39-1.329V15.977a1.355,1.355,0,0,0-1.39-1.329H8Z" transform="translate(-5.4 -13.5)"/></g><g transform="translate(2.054)"><path class="a" d="M15.688,10.492H9.4a.571.571,0,0,1-.6-.6V6.746a3.746,3.746,0,1,1,7.492,0V9.887A.65.65,0,0,1,15.688,10.492ZM10.008,9.283h5.075V6.746a2.538,2.538,0,0,0-5.075,0Z" transform="translate(-8.8 -3)"/></g><g transform="translate(5.196 9.244)"><path class="a" d="M14.6,20.656a.571.571,0,0,1-.6-.6V18.9a.6.6,0,1,1,1.208,0v1.148A.605.605,0,0,1,14.6,20.656Z" transform="translate(-14 -18.3)"/></g></g></g></svg>