<svg xmlns="http://www.w3.org/2000/svg" width="20" height="20" viewBox="0 0 20 20"><defs><style>.a{fill:#71839b;stroke:#71839b;stroke-width:0.1px;}</style></defs><g transform="translate(-8.8 -9)"><path class="a" d="M17.79,29a2.644,2.644,0,0,0,2.6-2.683v-2.7a.71.71,0,1,0-1.419,0v2.7a1.2,1.2,0,0,1-1.183,1.22H11.4a1.2,1.2,0,0,1-1.183-1.22V11.683a1.2,1.2,0,0,1,1.183-1.22H17.79a1.2,1.2,0,0,1,1.183,1.22v2.732a.71.71,0,1,0,1.419,0V11.683A2.644,2.644,0,0,0,17.79,9H11.4a2.644,2.644,0,0,0-2.6,2.683V26.317A2.644,2.644,0,0,0,11.4,29Z"/><path class="a" d="M44.831,31.324,39.863,26.1a.685.685,0,0,0-.986.018.775.775,0,0,0-.017,1.037l3.8,4H31.51a.748.748,0,0,0,0,1.494H42.657L38.851,36.65a.773.773,0,0,0-.2.731.729.729,0,0,0,.512.539.687.687,0,0,0,.695-.215l4.968-5.229a.772.772,0,0,0,0-1.145Z" transform="translate(-16.276 -12.898)"/></g></svg>