<svg xmlns="http://www.w3.org/2000/svg" width="30.906" height="23.542" viewBox="0 0 30.906 23.542">
  <g id="mail" transform="translate(0 -61)">
    <g id="Group_147" data-name="Group 147" transform="translate(0 61)">
      <path id="Path_234" data-name="Path 234" d="M28.19,61H2.716A2.721,2.721,0,0,0,0,63.716V81.825a2.721,2.721,0,0,0,2.716,2.716H28.19a2.721,2.721,0,0,0,2.716-2.716V63.716A2.721,2.721,0,0,0,28.19,61Zm-.375,1.811-12.3,12.3L3.1,62.811Zm-26,18.64V64.083l8.721,8.646Zm1.28,1.28L11.818,74l3.058,3.032a.905.905,0,0,0,1.278,0l2.982-2.982,8.68,8.68Zm26-1.28-8.68-8.68,8.68-8.68Z" transform="translate(0 -61)" fill="#fff"/>
    </g>
  </g>
</svg>
