<?xml version="1.0"?>
<svg xmlns="http://www.w3.org/2000/svg" xmlns:xlink="http://www.w3.org/1999/xlink" xmlns:svgjs="http://svgjs.com/svgjs" version="1.1" width="512" height="512" x="0" y="0" viewBox="0 0 510 510" style="enable-background:new 0 0 512 512" xml:space="preserve" class=""><g><g xmlns="http://www.w3.org/2000/svg"><path d="m495 32h-289.42l57.14 80h247.28v-65c0-8.28-6.72-15-15-15z" fill="#03699f" data-original="#000000" style="" class=""/><path d="m191.76 350.76c-53.91 0-97.76 43.85-97.76 97.76v61.48h195.52v-61.48c0-54.023-43.691-97.76-97.76-97.76z" fill="#03699f" data-original="#000000" style="" class=""/><ellipse cx="191.76" cy="279.38" rx="41.38" ry="41.38" transform="matrix(.987 -.16 .16 .987 -42.276 34.324)" fill="#03699f" data-original="#000000" style="" class=""/><path d="m242.79 135.72-96.94-135.72h-130.85c-8.28 0-15 6.72-15 15v480c0 8.28 6.72 15 15 15h49v-61.48c0-52.9 32.32-98.4 78.25-117.77-46.136-44.459-14.384-122.75 49.51-122.75 64.087 0 95.517 78.373 49.56 122.69 45.574 19.156 78.2 64.366 78.2 117.83v61.48h175.48c8.28 0 15-6.72 15-15v-353h-255c-4.84 0-9.39-2.34-12.21-6.28zm-99.79 6.28h-17v17c0 8.28-6.72 15-15 15s-15-6.72-15-15v-17h-17c-8.28 0-15-6.72-15-15s6.72-15 15-15h17v-17c0-8.28 6.72-15 15-15s15 6.72 15 15v17h17c8.28 0 15 6.72 15 15s-6.72 15-15 15zm176 42h112c8.28 0 15 6.72 15 15s-6.72 15-15 15h-112c-8.28 0-15-6.72-15-15s6.72-15 15-15zm0 64h112c8.28 0 15 6.72 15 15s-6.72 15-15 15h-112c-8.28 0-15-6.72-15-15s6.72-15 15-15z" fill="#03699f" data-original="#000000" style="" class=""/></g></g></svg>
