<?xml version="1.0"?>
<svg xmlns="http://www.w3.org/2000/svg" xmlns:xlink="http://www.w3.org/1999/xlink" xmlns:svgjs="http://svgjs.com/svgjs" version="1.1" width="512" height="512" x="0" y="0" viewBox="0 0 496 496" style="enable-background:new 0 0 512 512" xml:space="preserve" class=""><g><path xmlns="http://www.w3.org/2000/svg" d="m151.996094 496v-72h-88v-104h-56l56-120c0-57.441406 46.5625-104 104-104h40c57.441406 0 104 46.558594 104 104v88l-48 104v104" fill="#03699f" data-original="#ceb2aa" style=""/><path xmlns="http://www.w3.org/2000/svg" d="m287.996094 288v-88c0-57.441406-46.558594-104-104-104h-16c-57.4375 0-104 46.558594-104 104l-56 120h56v104h88v72h88v-104zm0 0" fill="#03699f" data-original="#e5c7bd" style="" class=""/><path xmlns="http://www.w3.org/2000/svg" d="m119.996094 24h352v320h-352zm0 0" fill="#03699f" data-original="#898997" style="" class=""/><path xmlns="http://www.w3.org/2000/svg" d="m151.996094 8h336v304h-336zm0 0" fill="#03699f" data-original="#d8d8e3" style="" class=""/><path xmlns="http://www.w3.org/2000/svg" d="m223.996094 200c-13.253906 0-24-10.742188-24-24v-16c0-13.257812 10.746094-24 24-24 13.257812 0 24 10.742188 24 24v16c0 13.257812-10.742188 24-24 24zm0 0" fill="#03699f" data-original="#ceb2aa" style=""/><path xmlns="http://www.w3.org/2000/svg" d="m215.996094 137.472656c-9.300782 3.304688-16 12.09375-16 22.527344v16c0 10.433594 6.699218 19.222656 16 22.527344 9.304687-3.304688 16-12.09375 16-22.527344v-16c0-10.433594-6.695313-19.222656-16-22.527344zm0 0" fill="#03699f" data-original="#e5c7bd" style="" class=""/><path xmlns="http://www.w3.org/2000/svg" d="m263.996094 280h-80v-40c0-22.089844 17.914062-40 40-40 22.089844 0 40 17.910156 40 40zm0 0" fill="#03699f" data-original="#63afe3" style="" class=""/><path xmlns="http://www.w3.org/2000/svg" d="m215.996094 200.808594c-18.253906 3.703125-32 19.839844-32 39.191406v40h64v-40c0-19.351562-13.742188-35.488281-32-39.191406zm0 0" fill="#03699f" data-original="#8ad6fb" style="" class=""/><path xmlns="http://www.w3.org/2000/svg" d="m151.996094 8h336v96h-336zm0 0" fill="#03699f" data-original="#b3b6c2" style="" class=""/><path xmlns="http://www.w3.org/2000/svg" d="m215.996094 56c0 8.835938-7.160156 16-16 16-8.835938 0-16-7.164062-16-16s7.164062-16 16-16c8.839844 0 16 7.164062 16 16zm0 0" fill="#03699f" data-original="#ed6863" style="" class=""/><path xmlns="http://www.w3.org/2000/svg" d="m279.996094 56c0 8.835938-7.160156 16-16 16-8.835938 0-16-7.164062-16-16s7.164062-16 16-16c8.839844 0 16 7.164062 16 16zm0 0" fill="#03699f" data-original="#f2a348" style="" class=""/><path xmlns="http://www.w3.org/2000/svg" d="m343.996094 56c0 8.835938-7.160156 16-16 16-8.835938 0-16-7.164062-16-16s7.164062-16 16-16c8.839844 0 16 7.164062 16 16zm0 0" fill="#03699f" data-original="#7ec95f" style="" class=""/><path xmlns="http://www.w3.org/2000/svg" d="m271.996094 496h-16v-104c0-1.160156.25-2.304688.738281-3.351562l22.152344-48 14.527343 6.703124-21.417968 46.410157zm0 0" fill="#8eafc1" data-original="#000000" style="" class=""/><path xmlns="http://www.w3.org/2000/svg" d="m159.996094 496h-16v-64h-80c-4.414063 0-8-3.574219-8-8v-96h-48c-2.734375 0-5.277344-1.398438-6.742188-3.703125s-1.664062-5.199219-.503906-7.679687l55.265625-118.425782c.652344-41.191406 23.621094-78.464844 60.285156-97.566406l7.402344 14.183594c-31.898437 16.625-51.707031 49.269531-51.707031 85.191406 0 1.167969-.253906 2.320312-.75 3.382812l-50.6875 108.617188h43.4375c4.417968 0 8 3.574219 8 8v96h80c4.417968 0 8 3.574219 8 8zm0 0" fill="#8eafc1" data-original="#000000" style="" class=""/><path xmlns="http://www.w3.org/2000/svg" d="m487.996094 320h-336c-4.414063 0-8-3.574219-8-8v-304c0-4.425781 3.585937-8 8-8h336c4.417968 0 8 3.574219 8 8v304c0 4.425781-3.582032 8-8 8zm-328-16h320v-288h-320zm0 0" fill="#8eafc1" data-original="#000000" style="" class=""/><path xmlns="http://www.w3.org/2000/svg" d="m199.996094 80c-13.230469 0-24-10.769531-24-24s10.769531-24 24-24c13.234375 0 24 10.769531 24 24s-10.765625 24-24 24zm0-32c-4.40625 0-8 3.585938-8 8s3.59375 8 8 8c4.410156 0 8-3.585938 8-8s-3.589844-8-8-8zm0 0" fill="#8eafc1" data-original="#000000" style="" class=""/><path xmlns="http://www.w3.org/2000/svg" d="m263.996094 80c-13.230469 0-24-10.769531-24-24s10.769531-24 24-24c13.234375 0 24 10.769531 24 24s-10.765625 24-24 24zm0-32c-4.40625 0-8 3.585938-8 8s3.59375 8 8 8c4.410156 0 8-3.585938 8-8s-3.589844-8-8-8zm0 0" fill="#8eafc1" data-original="#000000" style="" class=""/><path xmlns="http://www.w3.org/2000/svg" d="m327.996094 80c-13.230469 0-24-10.769531-24-24s10.769531-24 24-24c13.234375 0 24 10.769531 24 24s-10.765625 24-24 24zm0-32c-4.40625 0-8 3.585938-8 8s3.59375 8 8 8c4.410156 0 8-3.585938 8-8s-3.589844-8-8-8zm0 0" fill="#8eafc1" data-original="#000000" style="" class=""/><path xmlns="http://www.w3.org/2000/svg" d="m151.996094 96h336v16h-336zm0 0" fill="#8eafc1" data-original="#000000" style="" class=""/><path xmlns="http://www.w3.org/2000/svg" d="m223.996094 208c-17.644532 0-32-14.351562-32-32v-16c0-17.648438 14.355468-32 32-32 17.648437 0 32 14.351562 32 32v16c0 17.648438-14.351563 32-32 32zm0-64c-8.824219 0-16 7.175781-16 16v16c0 8.824219 7.175781 16 16 16 8.824218 0 16-7.175781 16-16v-16c0-8.824219-7.175782-16-16-16zm0 0" fill="#8eafc1" data-original="#000000" style="" class=""/><path xmlns="http://www.w3.org/2000/svg" d="m263.996094 288h-80c-4.414063 0-8-3.574219-8-8v-40c0-26.472656 21.53125-48 48-48 26.472656 0 48 21.527344 48 48v40c0 4.425781-3.582032 8-8 8zm-72-16h64v-32c0-17.648438-14.351563-32-32-32-17.644532 0-32 14.351562-32 32zm0 0" fill="#8eafc1" data-original="#000000" style="" class=""/><path xmlns="http://www.w3.org/2000/svg" d="m287.996094 272h176v16h-176zm0 0" fill="#8eafc1" data-original="#000000" style="" class=""/><path xmlns="http://www.w3.org/2000/svg" d="m287.996094 240h176v16h-176zm0 0" fill="#8eafc1" data-original="#000000" style="" class=""/><path xmlns="http://www.w3.org/2000/svg" d="m287.996094 208h176v16h-176zm0 0" fill="#8eafc1" data-original="#000000" style="" class=""/><path xmlns="http://www.w3.org/2000/svg" d="m287.996094 176h96v16h-96zm0 0" fill="#8eafc1" data-original="#000000" style="" class=""/><path xmlns="http://www.w3.org/2000/svg" d="m287.996094 144h96v16h-96zm0 0" fill="#8eafc1" data-original="#000000" style="" class=""/><path xmlns="http://www.w3.org/2000/svg" d="m471.996094 352h-352c-4.414063 0-8-3.574219-8-8v-320c0-4.425781 3.585937-8 8-8h32v16h-24v304h336v-24h16v32c0 4.425781-3.582032 8-8 8zm0 0" fill="#8eafc1" data-original="#000000" style="" class=""/></g></svg>
