<?xml version="1.0"?>
<svg xmlns="http://www.w3.org/2000/svg" xmlns:xlink="http://www.w3.org/1999/xlink" xmlns:svgjs="http://svgjs.com/svgjs" version="1.1" width="512" height="512" x="0" y="0" viewBox="0 0 512 512" style="enable-background:new 0 0 512 512" xml:space="preserve" class=""><g><g xmlns="http://www.w3.org/2000/svg"><path d="m211 452v30h-120v30h330v-30h-120v-30h-30v-60h90v-61h-210v61h90v60z" fill="#03699f" data-original="#000000" style="" class=""/><path d="m181 0v30h-15c-41.353 0-75 33.647-75 75v46h30v30h30v-30h30v30h30v-30h30v30h30v-30h30v-46c0-41.353-33.647-75-75-75h-15v-30z" fill="#03699f" data-original="#000000" style="" class=""/><path d="m362.518 241h-362.518v60h512c0-40.236 0-64.323 0-120h-76c-36.216 0-66.513 25.809-73.482 60zm119.482 0h-88.237c6.213-17.422 22.707-30 42.237-30h46z" fill="#03699f" data-original="#000000" style="" class=""/></g></g></svg>
