<svg xmlns="http://www.w3.org/2000/svg" width="31.106" height="30" viewBox="0 0 31.106 30">
  <g id="phone" transform="translate(0 -9.1)">
    <g id="Group_141" data-name="Group 141" transform="translate(0 9.1)">
      <g id="Group_140" data-name="Group 140" transform="translate(0 0)">
        <path id="Path_231" data-name="Path 231" d="M29.914,14.767a13.511,13.511,0,0,0-5.886-4.079A23.526,23.526,0,0,0,7.1,10.663a13.509,13.509,0,0,0-5.9,4.061,5.122,5.122,0,0,0-.959,4.794,2.566,2.566,0,0,0,2.464,1.736l3.885,0h0a2.62,2.62,0,0,0,2-.91A2.454,2.454,0,0,0,9.148,18.3c0-.021-.009-.043-.014-.064l-.2-.777a16.148,16.148,0,0,1,6.627-1.532,16.576,16.576,0,0,1,6.624,1.562l-.208.772c-.006.022-.011.044-.015.066a2.454,2.454,0,0,0,.55,2.053,2.62,2.62,0,0,0,2,.915l3.885,0h0a2.566,2.566,0,0,0,2.465-1.729A5.127,5.127,0,0,0,29.914,14.767Zm-.82,4.243a.729.729,0,0,1-.7.472h0l-3.885,0a.751.751,0,0,1-.574-.261.669.669,0,0,1-.157-.537l.387-1.437a.9.9,0,0,0-.429-1.014,18.277,18.277,0,0,0-8.17-2.12h-.073A17.921,17.921,0,0,0,7.376,16.2a.9.9,0,0,0-.429,1.009l.379,1.439a.67.67,0,0,1-.158.538.751.751,0,0,1-.574.259h0l-3.885,0a.729.729,0,0,1-.7-.475,3.371,3.371,0,0,1,.689-3.17c2.118-2.831,7.513-4.881,12.837-4.881h.029c5.33.007,10.733,2.076,12.847,4.919A3.376,3.376,0,0,1,29.094,19.01Z" transform="translate(0 -9.1)" fill="#fff"/>
      </g>
    </g>
    <g id="Group_143" data-name="Group 143" transform="translate(3.172 20.456)">
      <g id="Group_142" data-name="Group 142">
        <path id="Path_232" data-name="Path 232" d="M74.648,194.288l-2.915-2.973a.947.947,0,0,0-.676-.281H69.173V189.8a.934.934,0,0,0-1.867,0v1.236h-2.99V189.8a.934.934,0,0,0-1.867,0v1.236H60.565a.947.947,0,0,0-.676.281l-2.915,2.973A12.241,12.241,0,0,0,53.43,202.9v3.732a.921.921,0,0,0,.934.907H77.258a.921.921,0,0,0,.934-.907V202.9A12.24,12.24,0,0,0,74.648,194.288ZM55.3,205.72V202.9a10.461,10.461,0,0,1,3.029-7.356l2.639-2.692h9.692l2.639,2.692a10.462,10.462,0,0,1,3.029,7.356v2.825Z" transform="translate(-53.43 -188.89)" fill="#fff"/>
      </g>
    </g>
    <g id="Group_145" data-name="Group 145" transform="translate(10.806 26.289)">
      <g id="Group_144" data-name="Group 144">
        <path id="Path_233" data-name="Path 233" d="M180.793,287.135a4.747,4.747,0,1,0,4.747,4.747A4.753,4.753,0,0,0,180.793,287.135Zm0,7.681a2.933,2.933,0,1,1,2.933-2.933A2.937,2.937,0,0,1,180.793,294.816Z" transform="translate(-176.046 -287.135)" fill="#fff"/>
      </g>
    </g>
  </g>
</svg>
