<svg xmlns="http://www.w3.org/2000/svg" width="11.262" height="13.448" viewBox="0 0 11.262 13.448"><defs><style>.a{fill:#71839b;stroke:#71839b;stroke-width:0.1px;}</style></defs><g transform="translate(108.562 45.05)"><path class="a" d="M11.072,9.407c-1.617,0-2.65-2.456-2.65-3.737a2.651,2.651,0,1,1,5.3,0C13.722,6.951,12.689,9.407,11.072,9.407Zm0-5.339a1.6,1.6,0,0,0-1.59,1.6c0,1.068.853,2.67,1.59,2.67s1.59-1.6,1.59-2.67A1.6,1.6,0,0,0,11.072,4.068Zm5.221,9.691a2.686,2.686,0,0,0,0-2.59A14.641,14.641,0,0,0,14.645,8.8a.529.529,0,0,0-.917.172.537.537,0,0,0,.122.533A13.35,13.35,0,0,1,15.371,11.7a1.569,1.569,0,0,1,0,1.522,4.129,4.129,0,0,1-3.546,2.056H10.319a4.113,4.113,0,0,1-3.546-2.056,1.558,1.558,0,0,1,0-1.522A13.35,13.35,0,0,1,8.294,9.509a.537.537,0,0,0-.063-.736A.527.527,0,0,0,7.5,8.8a14.641,14.641,0,0,0-1.654,2.365,2.686,2.686,0,0,0,0,2.59,5.167,5.167,0,0,0,4.474,2.59h1.505a5.183,5.183,0,0,0,4.469-2.59ZM11.072,9.407c-1.617,0-2.65-2.456-2.65-3.737a2.651,2.651,0,1,1,5.3,0C13.722,6.951,12.689,9.407,11.072,9.407Zm0-5.339a1.6,1.6,0,0,0-1.59,1.6c0,1.068.853,2.67,1.59,2.67s1.59-1.6,1.59-2.67A1.6,1.6,0,0,0,11.072,4.068Zm5.221,9.691a2.686,2.686,0,0,0,0-2.59A14.641,14.641,0,0,0,14.645,8.8a.529.529,0,0,0-.917.172.537.537,0,0,0,.122.533A13.35,13.35,0,0,1,15.371,11.7a1.569,1.569,0,0,1,0,1.522,4.129,4.129,0,0,1-3.546,2.056H10.319a4.113,4.113,0,0,1-3.546-2.056,1.558,1.558,0,0,1,0-1.522A13.35,13.35,0,0,1,8.294,9.509a.537.537,0,0,0-.063-.736A.527.527,0,0,0,7.5,8.8a14.641,14.641,0,0,0-1.654,2.365,2.686,2.686,0,0,0,0,2.59,5.167,5.167,0,0,0,4.474,2.59h1.505a5.183,5.183,0,0,0,4.469-2.59Z" transform="translate(-114 -48)"/></g></svg>