<?xml version="1.0"?>
<svg xmlns="http://www.w3.org/2000/svg" xmlns:xlink="http://www.w3.org/1999/xlink" xmlns:svgjs="http://svgjs.com/svgjs" version="1.1" width="512" height="512" x="0" y="0" viewBox="0 0 512 512" style="enable-background:new 0 0 512 512" xml:space="preserve"><g><g xmlns="http://www.w3.org/2000/svg"><path d="m150 469.19c0 8.28 6.72 15 15 15h182c8.28 0 15-6.72 15-15v-35h-212z" fill="#03699f" data-original="#000000" style=""/><path d="m464 27.81h-415.99c-26.47 0-48.01 21.54-48.01 48.01v41.99h45c8.28 0 15 6.72 15 15s-6.72 15-15 15h-45v42.98h45c8.28 0 15 6.72 15 15 0 8.29-6.72 15-15 15h-45v43.4h45c8.28 0 15 6.72 15 15s-6.72 15-15 15h-45v61.99c0 26.47 21.54 48.01 48.01 48.01h415.99c26.46 0 48-21.54 48-48.01v-280.36c0-26.47-21.54-48.01-48-48.01zm-12 280.14c0 19.76-16.07 35.83-35.83 35.83h-230.34c-19.76 0-35.83-16.07-35.83-35.83v-184.31c0-19.76 16.07-35.83 35.83-35.83h230.34c19.76 0 35.83 16.07 35.83 35.83z" fill="#03699f" data-original="#000000" style=""/><path d="m389.98 275.73c-6.22 11.92-23.8 10.24-27.66-2.65l-19.72-65.96-6.89 15.11c-2.44 5.34-7.78 8.77-13.65 8.77h-17.95l-20.74 44.16c-5.57 11.86-22.44 11.23-27.37-.47-.4-.95 1.4 4.27-26.53-78.23l-18.63 27.87c-2.78 4.17-7.46 6.67-12.47 6.67h-18.37v76.95c0 3.21 2.62 5.83 5.83 5.83h230.34c3.21 0 5.83-2.62 5.83-5.83v-77.16h-8.53z" fill="#03699f" data-original="#000000" style=""/><path d="m416.17 117.81h-230.34c-3.21 0-5.83 2.62-5.83 5.83v77.36h10.35l31.09-46.52c6.91-10.35 22.71-8.22 26.68 3.52 10.05 29.68 4.97 14.67 23.93 70.68l8.95-19.06c2.47-5.26 7.77-8.62 13.58-8.62h17.84l19.46-42.68c5.76-12.59 24.07-11.28 28.02 1.93l20.59 68.88 10.61-20.29c2.58-4.95 7.71-8.05 13.29-8.05h17.61v-77.15c0-3.21-2.62-5.83-5.83-5.83z" fill="#03699f" data-original="#000000" style=""/></g></g></svg>
