<svg width="12" height="12" viewBox="0 0 12 12" fill="none" xmlns="http://www.w3.org/2000/svg">
<path d="M1.16667 11.6667C0.845833 11.6667 0.571278 11.5525 0.343 11.3243C0.114333 11.0956 0 10.8208 0 10.5V1.16667C0 0.845833 0.114333 0.571083 0.343 0.342417C0.571278 0.114139 0.845833 0 1.16667 0H5.83333L9.33333 3.5V5.83333H8.16667V4.08333H5.25V1.16667H1.16667V10.5H4.66667V11.6667H1.16667ZM1.16667 10.5V1.16667V10.5ZM8.34167 7.30625L8.96875 7.93333L6.70833 10.1792V10.7917H7.32083L9.58125 8.54583L10.1938 9.15833L7.68542 11.6667H5.83333V9.81458L8.34167 7.30625ZM10.1938 9.15833L8.34167 7.30625L9.1875 6.46042C9.29445 6.35347 9.43056 6.3 9.59583 6.3C9.76111 6.3 9.89722 6.35347 10.0042 6.46042L11.0396 7.49583C11.1465 7.60278 11.2 7.73889 11.2 7.90417C11.2 8.06944 11.1465 8.20556 11.0396 8.3125L10.1938 9.15833Z" fill="#5C5C5C"/>
</svg>
